<mxfile host="app.diagrams.net" modified="2021-02-02T21:57:57.037Z" agent="5.0 (Windows NT 10.0; Win64; x64) AppleWebKit/537.36 (KHTML, like Gecko) Chrome/88.0.4324.96 Safari/537.36" etag="qZnsfUXcOeEy9Ka2pRK2" version="14.2.4" type="github">
  <diagram id="YLhJMkTkNJmNHFE2qX-1" name="Page-1">
    <mxGraphModel dx="1422" dy="692" grid="1" gridSize="10" guides="1" tooltips="1" connect="1" arrows="1" fold="1" page="1" pageScale="1" pageWidth="827" pageHeight="1169" math="0" shadow="0">
      <root>
        <mxCell id="0" />
        <mxCell id="1" parent="0" />
        <mxCell id="y10jXJEBd-sgkBoo3fF7-27" style="edgeStyle=orthogonalEdgeStyle;rounded=0;orthogonalLoop=1;jettySize=auto;html=1;exitX=0;exitY=0.5;exitDx=0;exitDy=0;entryX=0;entryY=0.5;entryDx=0;entryDy=0;" parent="1" source="y10jXJEBd-sgkBoo3fF7-2" target="y10jXJEBd-sgkBoo3fF7-8" edge="1">
          <mxGeometry relative="1" as="geometry" />
        </mxCell>
        <mxCell id="y10jXJEBd-sgkBoo3fF7-30" style="edgeStyle=orthogonalEdgeStyle;rounded=0;orthogonalLoop=1;jettySize=auto;html=1;exitX=0.25;exitY=1;exitDx=0;exitDy=0;entryX=0.5;entryY=0.275;entryDx=0;entryDy=0;entryPerimeter=0;" parent="1" source="y10jXJEBd-sgkBoo3fF7-2" target="y10jXJEBd-sgkBoo3fF7-3" edge="1">
          <mxGeometry relative="1" as="geometry">
            <Array as="points">
              <mxPoint x="424" y="228" />
              <mxPoint x="344" y="228" />
            </Array>
          </mxGeometry>
        </mxCell>
        <mxCell id="y10jXJEBd-sgkBoo3fF7-31" style="edgeStyle=orthogonalEdgeStyle;rounded=0;orthogonalLoop=1;jettySize=auto;html=1;exitX=0.75;exitY=1;exitDx=0;exitDy=0;entryX=0.5;entryY=0;entryDx=0;entryDy=0;" parent="1" source="y10jXJEBd-sgkBoo3fF7-2" target="y10jXJEBd-sgkBoo3fF7-5" edge="1">
          <mxGeometry relative="1" as="geometry">
            <Array as="points">
              <mxPoint x="484" y="228" />
              <mxPoint x="564" y="228" />
            </Array>
          </mxGeometry>
        </mxCell>
        <mxCell id="y10jXJEBd-sgkBoo3fF7-2" value="&lt;b style=&quot;font-size: 14px&quot;&gt;S/W&lt;br&gt;Core&lt;/b&gt;" style="shape=process;whiteSpace=wrap;html=1;backgroundOutline=1;fillColor=#fff2cc;strokeColor=#d6b656;" parent="1" vertex="1">
          <mxGeometry x="394" y="160" width="120" height="50" as="geometry" />
        </mxCell>
        <mxCell id="y10jXJEBd-sgkBoo3fF7-25" style="edgeStyle=orthogonalEdgeStyle;rounded=0;orthogonalLoop=1;jettySize=auto;html=1;exitX=0.5;exitY=1;exitDx=0;exitDy=0;entryX=0.5;entryY=0;entryDx=0;entryDy=0;" parent="1" source="y10jXJEBd-sgkBoo3fF7-3" target="y10jXJEBd-sgkBoo3fF7-8" edge="1">
          <mxGeometry relative="1" as="geometry" />
        </mxCell>
        <mxCell id="y10jXJEBd-sgkBoo3fF7-3" value="&lt;b&gt;&lt;span class=&quot;ILfuVd&quot;&gt;&lt;span class=&quot;hgKElc&quot;&gt;&lt;b&gt;Algorithms&lt;/b&gt;&lt;/span&gt;&lt;/span&gt;&lt;/b&gt;" style="rounded=1;whiteSpace=wrap;html=1;fontSize=12;glass=0;strokeWidth=1;shadow=0;fillColor=#fff2cc;strokeColor=#d6b656;" parent="1" vertex="1">
          <mxGeometry x="284" y="248" width="120" height="40" as="geometry" />
        </mxCell>
        <mxCell id="y10jXJEBd-sgkBoo3fF7-28" style="edgeStyle=orthogonalEdgeStyle;rounded=0;orthogonalLoop=1;jettySize=auto;html=1;exitX=0.25;exitY=1;exitDx=0;exitDy=0;" parent="1" source="y10jXJEBd-sgkBoo3fF7-5" target="y10jXJEBd-sgkBoo3fF7-23" edge="1">
          <mxGeometry relative="1" as="geometry" />
        </mxCell>
        <mxCell id="y10jXJEBd-sgkBoo3fF7-29" style="edgeStyle=orthogonalEdgeStyle;rounded=0;orthogonalLoop=1;jettySize=auto;html=1;exitX=0.75;exitY=1;exitDx=0;exitDy=0;entryX=0.5;entryY=0;entryDx=0;entryDy=0;" parent="1" source="y10jXJEBd-sgkBoo3fF7-5" target="y10jXJEBd-sgkBoo3fF7-9" edge="1">
          <mxGeometry relative="1" as="geometry" />
        </mxCell>
        <mxCell id="y10jXJEBd-sgkBoo3fF7-5" value="&lt;b&gt;UI&lt;/b&gt;" style="rounded=1;whiteSpace=wrap;html=1;fontSize=12;glass=0;strokeWidth=1;shadow=0;fillColor=#fff2cc;strokeColor=#d6b656;" parent="1" vertex="1">
          <mxGeometry x="504" y="248" width="120" height="40" as="geometry" />
        </mxCell>
        <mxCell id="y10jXJEBd-sgkBoo3fF7-35" style="edgeStyle=orthogonalEdgeStyle;rounded=0;orthogonalLoop=1;jettySize=auto;html=1;exitX=0.25;exitY=1;exitDx=0;exitDy=0;entryX=0.5;entryY=0;entryDx=0;entryDy=0;" parent="1" source="y10jXJEBd-sgkBoo3fF7-6" target="y10jXJEBd-sgkBoo3fF7-10" edge="1">
          <mxGeometry relative="1" as="geometry" />
        </mxCell>
        <mxCell id="y10jXJEBd-sgkBoo3fF7-36" style="edgeStyle=orthogonalEdgeStyle;rounded=0;orthogonalLoop=1;jettySize=auto;html=1;exitX=0.75;exitY=1;exitDx=0;exitDy=0;entryX=0.5;entryY=0;entryDx=0;entryDy=0;" parent="1" source="y10jXJEBd-sgkBoo3fF7-6" target="y10jXJEBd-sgkBoo3fF7-12" edge="1">
          <mxGeometry relative="1" as="geometry" />
        </mxCell>
        <mxCell id="y10jXJEBd-sgkBoo3fF7-37" style="edgeStyle=orthogonalEdgeStyle;rounded=0;orthogonalLoop=1;jettySize=auto;html=1;exitX=0.5;exitY=1;exitDx=0;exitDy=0;" parent="1" source="y10jXJEBd-sgkBoo3fF7-6" target="y10jXJEBd-sgkBoo3fF7-11" edge="1">
          <mxGeometry relative="1" as="geometry" />
        </mxCell>
        <mxCell id="y10jXJEBd-sgkBoo3fF7-6" value="&lt;b&gt;Motor Driver&lt;br&gt;&lt;/b&gt;" style="rounded=1;whiteSpace=wrap;html=1;fontSize=12;glass=0;strokeWidth=1;shadow=0;fillColor=#fff2cc;strokeColor=#d6b656;" parent="1" vertex="1">
          <mxGeometry x="164" y="409" width="120" height="40" as="geometry" />
        </mxCell>
        <mxCell id="y10jXJEBd-sgkBoo3fF7-39" style="edgeStyle=orthogonalEdgeStyle;rounded=0;orthogonalLoop=1;jettySize=auto;html=1;exitX=0.25;exitY=1;exitDx=0;exitDy=0;" parent="1" source="y10jXJEBd-sgkBoo3fF7-7" target="y10jXJEBd-sgkBoo3fF7-14" edge="1">
          <mxGeometry relative="1" as="geometry" />
        </mxCell>
        <mxCell id="y10jXJEBd-sgkBoo3fF7-40" style="edgeStyle=orthogonalEdgeStyle;rounded=0;orthogonalLoop=1;jettySize=auto;html=1;exitX=0.75;exitY=1;exitDx=0;exitDy=0;" parent="1" source="y10jXJEBd-sgkBoo3fF7-7" target="y10jXJEBd-sgkBoo3fF7-13" edge="1">
          <mxGeometry relative="1" as="geometry" />
        </mxCell>
        <mxCell id="y10jXJEBd-sgkBoo3fF7-7" value="&lt;b&gt;Light Driver&lt;/b&gt;" style="rounded=1;whiteSpace=wrap;html=1;fontSize=12;glass=0;strokeWidth=1;shadow=0;fillColor=#fff2cc;strokeColor=#d6b656;" parent="1" vertex="1">
          <mxGeometry x="510" y="409" width="120" height="40" as="geometry" />
        </mxCell>
        <mxCell id="y10jXJEBd-sgkBoo3fF7-34" style="edgeStyle=orthogonalEdgeStyle;rounded=0;orthogonalLoop=1;jettySize=auto;html=1;exitX=0.25;exitY=1;exitDx=0;exitDy=0;" parent="1" source="y10jXJEBd-sgkBoo3fF7-8" target="y10jXJEBd-sgkBoo3fF7-6" edge="1">
          <mxGeometry relative="1" as="geometry" />
        </mxCell>
        <mxCell id="y10jXJEBd-sgkBoo3fF7-38" style="edgeStyle=orthogonalEdgeStyle;rounded=0;orthogonalLoop=1;jettySize=auto;html=1;exitX=0.75;exitY=1;exitDx=0;exitDy=0;" parent="1" source="y10jXJEBd-sgkBoo3fF7-8" target="y10jXJEBd-sgkBoo3fF7-7" edge="1">
          <mxGeometry relative="1" as="geometry" />
        </mxCell>
        <mxCell id="y10jXJEBd-sgkBoo3fF7-8" value="&lt;b&gt;H/U Manager&lt;/b&gt;" style="rounded=1;whiteSpace=wrap;html=1;fontSize=12;glass=0;strokeWidth=1;shadow=0;fillColor=#fff2cc;strokeColor=#d6b656;" parent="1" vertex="1">
          <mxGeometry x="284" y="329" width="120" height="40" as="geometry" />
        </mxCell>
        <mxCell id="y10jXJEBd-sgkBoo3fF7-9" value="&lt;b&gt;Touch Screen&lt;br&gt;&lt;/b&gt;" style="rounded=1;whiteSpace=wrap;html=1;fontSize=12;glass=0;strokeWidth=1;shadow=0;fillColor=#fff2cc;strokeColor=#d6b656;" parent="1" vertex="1">
          <mxGeometry x="584.5" y="329" width="120" height="40" as="geometry" />
        </mxCell>
        <mxCell id="y10jXJEBd-sgkBoo3fF7-10" value="&lt;b&gt;Setup Global Variables&lt;/b&gt;" style="rounded=1;whiteSpace=wrap;html=1;fontSize=12;glass=0;strokeWidth=1;shadow=0;fillColor=#fff2cc;strokeColor=#d6b656;" parent="1" vertex="1">
          <mxGeometry x="34" y="489" width="120" height="40" as="geometry" />
        </mxCell>
        <mxCell id="y10jXJEBd-sgkBoo3fF7-11" value="&lt;b&gt;Setup Global Variables&lt;/b&gt;" style="rounded=1;whiteSpace=wrap;html=1;fontSize=12;glass=0;strokeWidth=1;shadow=0;fillColor=#fff2cc;strokeColor=#d6b656;" parent="1" vertex="1">
          <mxGeometry x="164" y="489" width="120" height="40" as="geometry" />
        </mxCell>
        <mxCell id="y10jXJEBd-sgkBoo3fF7-12" value="&lt;b&gt;Setup Global Variables&lt;/b&gt;" style="rounded=1;whiteSpace=wrap;html=1;fontSize=12;glass=0;strokeWidth=1;shadow=0;fillColor=#fff2cc;strokeColor=#d6b656;" parent="1" vertex="1">
          <mxGeometry x="294" y="489" width="120" height="40" as="geometry" />
        </mxCell>
        <mxCell id="y10jXJEBd-sgkBoo3fF7-13" value="&lt;b&gt;TRANS&lt;/b&gt;" style="rounded=1;whiteSpace=wrap;html=1;fontSize=12;glass=0;strokeWidth=1;shadow=0;fillColor=#fff2cc;strokeColor=#d6b656;" parent="1" vertex="1">
          <mxGeometry x="580" y="489" width="120" height="40" as="geometry" />
        </mxCell>
        <mxCell id="y10jXJEBd-sgkBoo3fF7-14" value="&lt;b&gt;GPI&lt;/b&gt;" style="rounded=1;whiteSpace=wrap;html=1;fontSize=12;glass=0;strokeWidth=1;shadow=0;fillColor=#fff2cc;strokeColor=#d6b656;" parent="1" vertex="1">
          <mxGeometry x="440" y="489" width="120" height="40" as="geometry" />
        </mxCell>
        <mxCell id="y10jXJEBd-sgkBoo3fF7-32" style="edgeStyle=orthogonalEdgeStyle;rounded=0;orthogonalLoop=1;jettySize=auto;html=1;entryX=0.25;entryY=0;entryDx=0;entryDy=0;" parent="1" source="y10jXJEBd-sgkBoo3fF7-15" target="y10jXJEBd-sgkBoo3fF7-2" edge="1">
          <mxGeometry relative="1" as="geometry" />
        </mxCell>
        <mxCell id="y10jXJEBd-sgkBoo3fF7-15" value="&lt;b&gt;Joystick&lt;/b&gt;" style="rounded=1;whiteSpace=wrap;html=1;fontSize=12;glass=0;strokeWidth=1;shadow=0;fillColor=#fff2cc;strokeColor=#d6b656;" parent="1" vertex="1">
          <mxGeometry x="284" y="80" width="120" height="40" as="geometry" />
        </mxCell>
        <mxCell id="y10jXJEBd-sgkBoo3fF7-33" style="edgeStyle=orthogonalEdgeStyle;rounded=0;orthogonalLoop=1;jettySize=auto;html=1;exitX=0.5;exitY=1;exitDx=0;exitDy=0;entryX=0.75;entryY=0;entryDx=0;entryDy=0;" parent="1" source="y10jXJEBd-sgkBoo3fF7-16" target="y10jXJEBd-sgkBoo3fF7-2" edge="1">
          <mxGeometry relative="1" as="geometry" />
        </mxCell>
        <mxCell id="y10jXJEBd-sgkBoo3fF7-16" value="&lt;b&gt;Mouse/Keyboard&lt;/b&gt;" style="rounded=1;whiteSpace=wrap;html=1;fontSize=12;glass=0;strokeWidth=1;shadow=0;fillColor=#fff2cc;strokeColor=#d6b656;" parent="1" vertex="1">
          <mxGeometry x="504" y="80" width="120" height="40" as="geometry" />
        </mxCell>
        <mxCell id="y10jXJEBd-sgkBoo3fF7-23" value="&lt;b&gt;Screen&lt;/b&gt;" style="rounded=1;whiteSpace=wrap;html=1;fontSize=12;glass=0;strokeWidth=1;shadow=0;fillColor=#fff2cc;strokeColor=#d6b656;" parent="1" vertex="1">
          <mxGeometry x="434" y="329" width="120" height="40" as="geometry" />
        </mxCell>
        <mxCell id="y10jXJEBd-sgkBoo3fF7-41" value="&lt;b&gt;&lt;font style=&quot;font-size: 20px&quot;&gt;System&#39;s Flow Diagram&lt;br&gt;&lt;/font&gt;&lt;/b&gt;" style="rounded=1;whiteSpace=wrap;html=1;verticalAlign=top;strokeColor=#d6b656;fillColor=none;strokeWidth=4;" parent="1" vertex="1">
          <mxGeometry x="3" y="30" width="750" height="543" as="geometry" />
        </mxCell>
      </root>
    </mxGraphModel>
  </diagram>
</mxfile>
